<svg width="197" height="27" viewBox="0 0 197 27" fill="none" xmlns="http://www.w3.org/2000/svg">
<path d="M1.93066 26C1.13314 26 0.734375 25.5728 0.734375 24.7183V2.7749C0.734375 1.92041 1.13314 1.49316 1.93066 1.49316H8.32227C12.4238 1.49316 15.2664 2.15967 16.8501 3.49268C18.4451 4.82568 19.2427 6.71696 19.2427 9.1665C19.2427 11.616 18.4451 13.5073 16.8501 14.8403C15.2664 16.1733 12.4238 16.8398 8.32227 16.8398H5.72461V24.7183C5.72461 25.5728 5.32585 26 4.52832 26H1.93066ZM5.72461 12.6699H8.30518C10.5838 12.6699 12.1333 12.4022 12.9536 11.8667C13.7739 11.3198 14.1841 10.4198 14.1841 9.1665C14.1841 7.91325 13.7739 7.01888 12.9536 6.4834C12.1333 5.93652 10.5838 5.66309 8.30518 5.66309H5.72461V12.6699ZM24.626 26C23.8285 26 23.4297 25.5728 23.4297 24.7183V2.7749C23.4297 1.92041 23.8285 1.49316 24.626 1.49316H30.5903C35.8312 1.49316 39.3745 2.55273 41.2202 4.67188C43.0773 6.79102 44.0059 9.80452 44.0059 13.7124C44.0059 17.6203 43.0773 20.6452 41.2202 22.7871C39.3745 24.929 35.8312 26 30.5903 26H24.626ZM28.4199 21.7617H30.2656C33.7975 21.7617 36.0819 21.1066 37.1187 19.7964C38.1554 18.4748 38.6738 16.4468 38.6738 13.7124C38.6738 10.978 38.1554 8.96143 37.1187 7.6626C36.0819 6.35238 33.7975 5.69727 30.2656 5.69727H28.4199V21.7617ZM49.4062 26C48.6087 26 48.21 25.5728 48.21 24.7183V2.7749C48.21 1.92041 48.6087 1.49316 49.4062 1.49316H62.9243C63.7788 1.49316 64.2061 1.86344 64.2061 2.604V4.62061C64.2061 5.36117 63.7788 5.73145 62.9243 5.73145H53.2002V11.6787H61.5229C62.3774 11.6787 62.8047 12.049 62.8047 12.7896V14.8062C62.8047 15.5467 62.3774 15.917 61.5229 15.917H53.2002V24.7183C53.2002 25.5728 52.8014 26 52.0039 26H49.4062ZM68.3589 26C67.5044 26 67.0771 25.6297 67.0771 24.8892V24.0688C67.0771 23.4764 67.3506 22.8896 67.8975 22.3086L73.0073 16.9253C74.5454 15.2961 75.9525 13.8491 77.2285 12.5845C78.5046 11.3084 79.1426 10.021 79.1426 8.72217C79.1426 7.42334 78.8179 6.47201 78.1685 5.86816C77.5304 5.25293 76.7158 4.94531 75.7246 4.94531C74.1523 4.94531 73.0586 5.3099 72.4434 6.03906C71.8281 6.76823 71.3838 7.54867 71.1104 8.38037C70.8483 9.18929 70.3698 9.47982 69.6748 9.25195L67.9487 8.6709C67.3905 8.47721 67.231 7.94173 67.4702 7.06445C67.9146 5.43522 68.8203 4.03955 70.1875 2.87744C71.5547 1.70394 73.5827 1.11719 76.2715 1.11719C79.0742 1.11719 81.1079 1.84066 82.3726 3.2876C83.6372 4.72314 84.2695 6.28402 84.2695 7.97021C84.2695 10.1805 83.3467 12.123 81.501 13.7979C79.6553 15.4613 77.9805 17.0848 76.4766 18.6685L73.5713 21.7275V21.8301C74.2549 21.7845 74.8245 21.7617 75.2803 21.7617H83.2612C84.1157 21.7617 84.543 22.132 84.543 22.8726V24.8892C84.543 25.6297 84.1157 26 83.2612 26H68.3589ZM88.2515 20.668C87.5109 20.668 87.1406 20.2977 87.1406 19.5571V17.3013C87.1406 16.6519 87.3115 16.0879 87.6533 15.6094L97.1211 2.2793C97.5426 1.68685 98.0724 1.39062 98.7104 1.39062H101.223C101.975 1.39062 102.351 1.7609 102.351 2.50146V16.4297H104.418C105.159 16.4297 105.529 16.8 105.529 17.5405V19.5571C105.529 20.2977 105.165 20.668 104.436 20.668H102.351V24.8892C102.351 25.6297 101.98 26 101.24 26H98.6763C97.9357 26 97.5654 25.6297 97.5654 24.8892V20.668H88.2515ZM91.9087 16.4297H97.5654V9.81592C97.5654 9.36019 97.5882 8.90446 97.6338 8.44873H97.5654L91.9087 16.4297Z" fill="black"/>
<path d="M120.107 4.43262C119.48 4.43262 119.167 4.17627 119.167 3.66357V2.26221C119.167 1.74951 119.48 1.49316 120.107 1.49316H138.188C138.815 1.49316 139.128 1.74951 139.128 2.26221V3.66357C139.128 4.17627 138.815 4.43262 138.188 4.43262H130.788V25.0601C130.788 25.6867 130.503 26 129.934 26H128.361C127.792 26 127.507 25.6867 127.507 25.0601V4.43262H120.107ZM136.103 17.0278C136.103 14.3504 136.809 12.1401 138.222 10.397C139.646 8.64242 141.726 7.76514 144.46 7.76514C147.194 7.76514 149.268 8.64242 150.681 10.397C152.105 12.1401 152.817 14.3504 152.817 17.0278C152.817 19.7052 152.105 21.9212 150.681 23.6758C149.268 25.4189 147.194 26.2905 144.46 26.2905C141.726 26.2905 139.646 25.4189 138.222 23.6758C136.809 21.9212 136.103 19.7052 136.103 17.0278ZM139.282 17.0278C139.282 19.4204 139.755 21.1921 140.7 22.3428C141.646 23.4935 142.899 24.0688 144.46 24.0688C146.021 24.0688 147.274 23.4935 148.22 22.3428C149.165 21.1921 149.638 19.4204 149.638 17.0278C149.638 14.6353 149.165 12.8636 148.22 11.7129C147.274 10.5622 146.021 9.98682 144.46 9.98682C142.899 9.98682 141.646 10.5622 140.7 11.7129C139.755 12.8636 139.282 14.6353 139.282 17.0278ZM155.722 17.0278C155.722 14.3504 156.429 12.1401 157.841 10.397C159.265 8.64242 161.345 7.76514 164.079 7.76514C166.813 7.76514 168.887 8.64242 170.3 10.397C171.724 12.1401 172.436 14.3504 172.436 17.0278C172.436 19.7052 171.724 21.9212 170.3 23.6758C168.887 25.4189 166.813 26.2905 164.079 26.2905C161.345 26.2905 159.265 25.4189 157.841 23.6758C156.429 21.9212 155.722 19.7052 155.722 17.0278ZM158.901 17.0278C158.901 19.4204 159.374 21.1921 160.319 22.3428C161.265 23.4935 162.518 24.0688 164.079 24.0688C165.64 24.0688 166.893 23.4935 167.839 22.3428C168.785 21.1921 169.257 19.4204 169.257 17.0278C169.257 14.6353 168.785 12.8636 167.839 11.7129C166.893 10.5622 165.64 9.98682 164.079 9.98682C162.518 9.98682 161.265 10.5622 160.319 11.7129C159.374 12.8636 158.901 14.6353 158.901 17.0278ZM177.084 26C176.572 26 176.315 25.7437 176.315 25.231V3.90283C176.315 3.67497 176.372 3.4585 176.486 3.25342L177.683 1.08301C177.899 0.684245 178.076 0.484863 178.212 0.484863H178.811C179.152 0.484863 179.323 0.684245 179.323 1.08301V25.231C179.323 25.7437 179.067 26 178.554 26H177.084ZM183.476 24.3252C183.123 23.9948 183.049 23.6872 183.254 23.4023L184.023 22.3257C184.274 21.9839 184.644 22.001 185.134 22.377C185.806 22.8896 186.552 23.2998 187.373 23.6074C188.204 23.915 189.15 24.0688 190.209 24.0688C190.836 24.0688 191.394 23.9948 191.884 23.8467C192.374 23.6872 192.801 23.3966 193.166 22.9751C193.542 22.5535 193.73 21.9896 193.73 21.2832C193.73 20.873 193.639 20.4857 193.457 20.1211C193.286 19.7565 193.012 19.466 192.636 19.2495C192.272 19.0216 191.913 18.8451 191.56 18.7197C190.979 18.5033 190.397 18.3267 189.816 18.1899C189.247 18.0418 188.495 17.8197 187.561 17.5234C186.934 17.3298 186.341 17.0563 185.783 16.7031C185.225 16.3385 184.735 15.8486 184.313 15.2334C183.903 14.6182 183.698 13.7694 183.698 12.687C183.698 11.5819 184.034 10.6305 184.707 9.83301C185.379 9.03548 186.222 8.4943 187.236 8.20947C188.25 7.91325 189.235 7.76514 190.192 7.76514C191.605 7.76514 192.739 7.93034 193.593 8.26074C194.459 8.57975 195.205 8.96143 195.832 9.40576C196.197 9.66781 196.248 9.96973 195.986 10.3115L195.217 11.3369C194.978 11.6673 194.607 11.6559 194.106 11.3027C193.684 11.0065 193.086 10.7274 192.312 10.4653C191.537 10.2033 190.859 10.0723 190.278 10.0723C189.56 10.0723 188.945 10.152 188.432 10.3115C187.919 10.471 187.504 10.7445 187.185 11.1318C186.866 11.5192 186.706 11.9749 186.706 12.499C186.706 12.8978 186.769 13.2567 186.894 13.5757C187.019 13.8833 187.253 14.1681 187.595 14.4302C187.937 14.6922 188.415 14.903 189.03 15.0625C189.987 15.3132 190.859 15.541 191.645 15.7461C192.443 15.9512 193.16 16.2018 193.798 16.498C194.63 16.8854 195.268 17.3127 195.712 17.7798C196.168 18.2469 196.481 18.7539 196.652 19.3008C196.823 19.8363 196.909 20.4344 196.909 21.0952C196.909 22.3143 196.544 23.3454 195.815 24.1885C195.097 25.0316 194.294 25.5955 193.405 25.8804C192.517 26.1538 191.446 26.2905 190.192 26.2905C188.495 26.2905 187.036 26.0513 185.817 25.5728C184.61 25.0828 183.829 24.667 183.476 24.3252Z" fill="#327FDE"/>
</svg>
