<svg width="14" height="13" viewBox="0 0 14 13" fill="none" xmlns="http://www.w3.org/2000/svg">
<path d="M6.99985 10.8909L3.60676 12.8783C3.45687 12.971 3.30016 13.0108 3.13664 12.9975C2.97312 12.9843 2.83003 12.9313 2.70739 12.8385C2.58475 12.7458 2.48936 12.63 2.42123 12.4911C2.3531 12.3517 2.33947 12.1959 2.38035 12.0237L3.27972 8.26753L0.275003 5.74355C0.138735 5.62431 0.0537031 5.48837 0.0199086 5.33574C-0.0144311 5.18364 -0.00434725 5.03472 0.0501601 4.88897C0.104667 4.74323 0.186428 4.62399 0.295443 4.53124C0.404458 4.4385 0.554353 4.37888 0.745129 4.35238L4.71054 4.01452L6.24356 0.476973C6.31169 0.317982 6.41743 0.198739 6.56079 0.119243C6.7036 0.0397478 6.84995 0 6.99985 0C7.14974 0 7.29637 0.0397478 7.43972 0.119243C7.58253 0.198739 7.688 0.317982 7.75613 0.476973L9.28915 4.01452L13.2546 4.35238C13.4453 4.37888 13.5952 4.4385 13.7042 4.53124C13.8133 4.62399 13.895 4.74323 13.9495 4.88897C14.004 5.03472 14.0144 5.18364 13.9806 5.33574C13.9463 5.48837 13.861 5.62431 13.7247 5.74355L10.72 8.26753L11.6193 12.0237C11.6602 12.1959 11.6466 12.3517 11.5785 12.4911C11.5103 12.63 11.4149 12.7458 11.2923 12.8385C11.1697 12.9313 11.0266 12.9843 10.8631 12.9975C10.6995 13.0108 10.5428 12.971 10.3929 12.8783L6.99985 10.8909Z" fill="#FFC700"/>
</svg>
